# xmcd
#
# Track frame offsets:
# 150
# 17540
# 32626
# 43369
# 57751
# 69774
# 81585
# 92581
# 101416
# 116816
# 130755
# 143972
# 159935
#
# Disc length: 2195 seconds
#
#
# Revision: 0
# Processed by: cddbd v1.5.1PL2 Copyright (c) Steve Scherf et al.
# Submitted via: FreeRIP 2.944 
#
DISCID=a608910d
DTITLE=Amy Grant-My Father's Eyes - My Father's Eyes
DYEAR=1979
DGENRE=Contemporary Christian
TTITLE0=Father's Eyes
TTITLE1=Faith Walkin' People
TTITLE2=Always The Winner
TTITLE3=Never Give You Up
TTITLE4=Bridegroom
TTITLE5=Lay Down
TTITLE6=You Were There
TTITLE7=O Sacred Head
TTITLE8=All That I Need Is You
TTITLE9=Fairytale
TTITLE10=Giggle
TTITLE11=There Will Never Be Another
TTITLE12=Keep It On Going
EXTD=
EXTT0=
EXTT1=
EXTT2=
EXTT3=
EXTT4=
EXTT5=
EXTT6=
EXTT7=
EXTT8=
EXTT9=
EXTT10=
EXTT11=
EXTT12=
PLAYORDER=
